<svg viewBox="0 0 4209 1090" xmlns="http://www.w3.org/2000/svg" xml:space="preserve" style="fill-rule:evenodd;clip-rule:evenodd;stroke-linejoin:round;stroke-miterlimit:2"><path style="fill:none" d="M6534 210h3805v973H6534z" transform="matrix(1.10617 0 0 1.12025 -7227.75 -235.252)"/><path d="M1024 100c0-55.192-44.808-100-100-100H100C44.808 0 0 44.808 0 100v824c0 55.192 44.808 100 100 100h824c55.192 0 100-44.808 100-100V100Z" style="fill:#134881" transform="matrix(1 0 0 1 -.052 0)"/><path d="M2477 909.311c-.17 21.934-18.03 39.689-40 39.689h-403.69l-172.55-298.876H2477v259.187ZM1603 909V733.513L1983.19 75h148.58l-321.19 556.33L1993.98 949H1643c-22.08 0-40-17.923-40-40Zm487.17-292.956h-150.22c-16.77 0-32.27-8.8-40.65-23.327a46.907 46.907 0 0 1 0-46.935l75.15-130.17 115.72 200.432ZM2437 75c21.97 0 39.83 17.755 40 39.689v501.355h-347.48l-135.41-234.495L2171.1 75H2437Z" style="fill:url(#a)" transform="matrix(1 0 0 1 -1528.042 0)"/><path d="M827.001 1634.57h-30.184v85.33h29.547c28.273 0 44.575-13.88 44.575-42.79 0-29.17-16.938-42.54-43.938-42.54Zm-2.547 69.54h-7.514v-53.87h8.15c16.175 0 25.09 7.64 25.09 27.12 0 19.49-8.915 26.75-25.726 26.75ZM939.967 1688.19c0-22.8-11.717-34.13-31.203-34.13-19.868 0-32.731 14.77-32.731 34.26 0 19.35 11.335 33.36 32.858 33.36 16.557 0 26.109-7.77 28.911-16.55l-15.92-6.37c-2.165 5.73-5.859 9.55-12.863 9.55-8.915 0-13.373-7.51-14.137-15.92h45.085v-4.2Zm-31.203-20.89c8.151 0 12.099 5.86 12.736 14.14h-26.363c1.401-8.66 6.24-14.14 13.627-14.14ZM972.188 1721.68c18.212 0 28.272-8.28 28.272-21.27 0-13.88-11.716-16.81-25.215-19.74-8.406-1.78-11.972-3.18-11.972-7.64 0-3.69 2.674-6.37 8.151-6.37 5.094 0 9.17 2.3 10.698 8.54l16.938-4.59c-2.419-10.44-11.589-16.55-27.254-16.55-18.722 0-27.255 8.91-27.255 20.25 0 12.35 9.425 16.55 23.562 19.61 9.679 2.17 13.499 3.18 13.499 7.77 0 4.46-3.948 7-9.551 7-6.114 0-10.062-2.93-11.463-9.04l-17.193 4.33c1.401 9.55 10.826 17.7 28.783 17.7ZM1016.13 1647.56c6.62 0 11.08-4.84 11.08-10.82 0-6.24-4.46-10.96-11.08-10.96-6.63 0-11.08 4.72-11.08 10.96 0 5.98 4.45 10.82 11.08 10.82Zm-9.68 72.34h19.48v-63.93h-19.48v63.93ZM1097.51 1658.9l1.91-14.39c-1.15-.51-3.82-1.66-7.9-1.66-7.13 0-12.99 3.56-15.66 12.86-3.44-1.14-7.39-1.65-11.72-1.65-18.47 0-28.66 10.19-28.66 23.56 0 9.55 5.35 16.55 12.87 19.48-6.12.26-11.21 3.44-11.21 9.05 0 4.96 3.57 7.51 7.13 8.66v.38c-4.71.64-12.35 3.82-12.35 13.12 0 10.31 9.93 18.46 32.22 18.46 22.54 0 32.98-8.4 32.98-21.39 0-7.52-2.92-12.48-8.91-15.41-4.08-2.04-9.81-3.06-17.07-3.06h-6.62c-7.39 0-10.31-.51-10.31-3.18 0-2.68 3.43-3.06 7.64-3.32 8.53-.63 15.15-1.9 20.37-4.96 5.1-3.06 10.19-8.41 10.19-18.09 0-8.27-3.56-14.51-9.55-18.46 2.04-1.79 4.46-2.3 7.01-2.3 2.93 0 5.98 1.02 7.64 2.3Zm-33.5 29.29c-6.75 0-10.31-4.97-10.31-10.95 0-6.12 3.56-10.96 10.31-10.96s10.32 4.84 10.32 10.96c0 5.98-3.44 10.95-10.32 10.95Zm-6.75 30.56h7.26c8.54 0 14.78.64 14.78 7.14 0 5.09-4.21 8.66-14.91 8.66-10.95 0-14.64-4.08-14.64-8.54 0-4.58 4.2-6.62 7.51-7.26ZM1104.38 1719.9h19.49v-35.28c0-10.57 4.71-14.9 11.33-14.9 5.99 0 8.92 3.44 8.92 11.34v38.84h19.49V1678c0-16.43-8.67-23.94-21.02-23.94-9.42 0-16.3 4.33-19.48 13.5h-.39l-.38-11.59h-17.96v63.93ZM1234.54 1688.19c0-22.8-11.71-34.13-31.2-34.13-19.87 0-32.73 14.77-32.73 34.26 0 19.35 11.33 33.36 32.86 33.36 16.56 0 26.11-7.77 28.91-16.55l-15.92-6.37c-2.17 5.73-5.86 9.55-12.86 9.55-8.92 0-13.38-7.51-14.14-15.92h45.08v-4.2Zm-31.2-20.89c8.15 0 12.1 5.86 12.74 14.14h-26.37c1.41-8.66 6.24-14.14 13.63-14.14ZM1241.68 1719.9h19.48v-25.98c0-16.3 7.64-23.05 16.43-23.05 3.18 0 5.73.64 7.26 1.4l2.55-16.94c-1.02-.51-3.31-1.27-7.01-1.27-7.26 0-16.3 4.07-20.12 17.57h-.38l-.26-15.66h-17.95v63.93ZM1333.76 1703.6c9.29-15.79 39.22-21.27 39.22-45.72 0-15.03-10.95-25.09-30.06-25.09-17.95 0-28.27 9.81-30.56 23.43l18.34 4.97c1.65-7.52 5.09-11.97 11.71-11.97 6.88 0 10.19 4.45 10.19 10.06 0 19.36-41.39 23.94-41.39 55.4v5.22h62.15v-16.3h-39.6Z" style="fill:#dadada;fill-rule:nonzero" transform="matrix(5.23788 0 0 5.23792 -2985.695 -8059.707)"/><g><path d="M4062.96 3790.78h-78.88v65.57h45.14v15.29h-45.14v82.25h-16.43v-178.58h95.31v15.47Zm411.13 163.11h-16.63v-178.58h16.63v178.58Zm-231.83 0h-16.64v-178.58h16.64v178.58Zm-50.3-163.11h-78.89v65.57h45.14v15.29h-45.14v82.25h-16.44v-178.58h95.33v15.47Zm427.44 0h-47.42v163.11h-16.64v-163.11h-47.68v-15.47h111.74v15.47Zm-326.97 163.11h-16.45v-178.58h17.69l113.37 150.58v-150.58h16.64v178.58h-16.22l-115.03-153.25v153.25Zm433.99 0h-16.81v-43.68l-77.04-134.9h18.97l66.47 115.75 66.48-115.75h18.96l-77.03 134.9v43.68Zm-773.48 0h-17.71l-69.15-155.86c-4.33 9.97-46.43 105.7-50.93 115.85 8.82 0 84.3.74 88.62.77l6.88 15.02c-15.05-.09-82.52-.31-102.49-.31-1.82 3.84-9.49 20.86-10.98 24.53h-17.73l79.14-178.58h15.22l79.13 178.58Z" style="fill:#dadada" transform="matrix(1.47357 0 0 1.47358 -4381.347 -5488.236)"/></g><defs><radialGradient id="a" cx="0" cy="0" r="1" gradientUnits="userSpaceOnUse" gradientTransform="translate(2271.03 -89.26) scale(1038.26)"><stop offset="0" style="stop-color:#6be1fb;stop-opacity:1"/><stop offset="1" style="stop-color:#38bdfa;stop-opacity:1"/></radialGradient></defs></svg>